<svg xmlns="http://www.w3.org/2000/svg" viewBox="0 0 1200 260" role="img" aria-label="wtec arc">
  <defs>
    <linearGradient id="bg" x1="0%" y1="0%" x2="100%" y2="0%">
      <stop offset="0%" stop-color="#1d1135"/>
      <stop offset="100%" stop-color="#2f1b4d"/>
    </linearGradient>
    <linearGradient id="arcA" x1="0%" y1="0%" x2="100%" y2="0%">
      <stop offset="0%" stop-color="#bde0fe"/>
      <stop offset="100%" stop-color="#ffafcc"/>
    </linearGradient>
    <linearGradient id="arcB" x1="0%" y1="0%" x2="100%" y2="0%">
      <stop offset="0%" stop-color="#cdb4db"/>
      <stop offset="100%" stop-color="#ffc8dd"/>
    </linearGradient>
  </defs>

  <rect width="1200" height="260" fill="url(#bg)"/>

  <path
    d="M 140 170 C 250 62, 410 62, 520 170 C 635 62, 785 62, 900 170 C 980 236, 1060 236, 1140 170"
    fill="none"
    stroke="url(#arcA)"
    stroke-width="6"
    stroke-linecap="round"
  />

  <path
    d="M 140 126 C 262 232, 398 232, 520 126 C 635 232, 785 232, 900 126"
    fill="none"
    stroke="url(#arcB)"
    stroke-width="4"
    stroke-linecap="round"
    opacity="0.9"
  />

  <g fill="#ffe5ec">
    <circle cx="140" cy="170" r="6"/>
    <circle cx="520" cy="170" r="6"/>
    <circle cx="900" cy="170" r="6"/>
    <circle cx="1140" cy="170" r="6"/>
  </g>
</svg>
